<svg width="20" height="20" viewBox="0 0 20 20" fill="none" xmlns="http://www.w3.org/2000/svg">
<path d="M10 0.3125C4.65821 0.3125 0.3125 4.65821 0.3125 10C0.3125 15.3418 4.65821 19.6875 10 19.6875C15.3418 19.6875 19.6875 15.3418 19.6875 10C19.6875 4.6582 15.3418 0.3125 10 0.3125ZM10 17.8125C5.69214 17.8125 2.1875 14.3079 2.1875 10C2.1875 5.69214 5.69214 2.1875 10 2.1875C14.3079 2.1875 17.8125 5.69214 17.8125 10C17.8125 14.3079 14.3079 17.8125 10 17.8125Z" fill="#2BC155"/>
<path d="M13.1415 7.02759L9.18458 10.9839L7.53785 9.33716C7.17163 8.97095 6.57837 8.97095 6.21216 9.33716C5.84596 9.70337 5.84595 10.2966 6.21216 10.6628L8.52173 12.9724C8.70484 13.1555 8.94471 13.2471 9.18458 13.2471C9.42445 13.2471 9.66431 13.1555 9.84742 12.9724L14.4672 8.35326C14.8334 7.98705 14.8334 7.39379 14.4672 7.02758C14.101 6.66138 13.5077 6.66138 13.1415 7.02759Z" fill="#2BC155"/>
</svg>
