<svg width="39" height="39" viewBox="0 0 39 39" fill="none" xmlns="http://www.w3.org/2000/svg">
<rect x="39.0001" y="39" width="39" height="39" rx="19.5" transform="rotate(-180 39.0001 39)" fill="#2BC155" fill-opacity="0.08"/>
<g clip-path="url(#clip0_1521_14618)">
<path d="M22.4236 27.2301C22.2204 26.8103 22.3999 26.3025 22.8197 26.0994C23.9876 25.5374 24.9762 24.6639 25.6803 23.5704C26.4014 22.4499 26.784 21.1499 26.784 19.8092C26.784 15.9634 23.6559 12.8353 19.81 12.8353C15.9642 12.8353 12.8361 15.9634 12.8361 19.8092C12.8361 21.1499 13.2186 22.4499 13.9363 23.5738C14.6371 24.6673 15.629 25.5408 16.797 26.1027C17.2168 26.3059 17.3962 26.8103 17.1931 27.2335C16.99 27.6533 16.4855 27.8327 16.0624 27.6296C14.61 26.9322 13.3811 25.8488 12.5111 24.4879C11.6173 23.0931 11.1434 21.4749 11.1434 19.8092C11.1434 17.4936 12.0439 15.3168 13.6824 13.6816C15.3176 12.0431 17.4944 11.1426 19.81 11.1426C22.1256 11.1426 24.3025 12.0431 25.9376 13.6816C27.5762 15.3202 28.4767 17.4936 28.4767 19.8092C28.4767 21.4749 28.0027 23.0931 27.1056 24.4879C26.2322 25.8454 25.0033 26.9322 23.5543 27.6296C23.1311 27.8293 22.6267 27.6533 22.4236 27.2301Z" fill="#2BC155"/>
<path d="M23.104 20.2594C23.2698 20.4253 23.3511 20.6419 23.3511 20.8586C23.3511 21.0753 23.2698 21.2919 23.104 21.4578L20.9745 23.5872C20.6631 23.8987 20.2501 24.068 19.8133 24.068C19.3766 24.068 18.9602 23.8953 18.6521 23.5872L16.5227 21.4578C16.1909 21.126 16.1909 20.5911 16.5227 20.2594C16.8545 19.9276 17.3894 19.9276 17.7211 20.2594L18.9704 21.5086L18.9704 16.6979C18.9704 16.2307 19.3495 15.8516 19.8167 15.8516C20.2839 15.8516 20.6631 16.2307 20.6631 16.6979L20.6631 21.512L21.9123 20.2628C22.2373 19.931 22.7722 19.931 23.104 20.2594Z" fill="#2BC155"/>
</g>
<defs>
<clipPath id="clip0_1521_14618">
<rect width="17.3333" height="17.3333" fill="white" transform="matrix(-9.93477e-08 1 1 9.93477e-08 11.1434 11.1426)"/>
</clipPath>
</defs>
</svg>
