<svg width="20" height="24" viewBox="0 0 20 24" fill="none" xmlns="http://www.w3.org/2000/svg">
<path fill-rule="evenodd" clip-rule="evenodd" d="M19.1971 7.95134C19.2846 8.11468 19.3336 8.30134 19.3336 8.49967V18.9997C19.3336 21.5768 17.2452 23.6663 14.6669 23.6663H1.83356C1.18956 23.6663 0.666893 23.1437 0.666893 22.4997V1.49967C0.666893 0.855675 1.18956 0.333008 1.83356 0.333008H11.1669C11.3652 0.333008 11.5519 0.382008 11.7152 0.469508L11.7187 0.471841C11.8097 0.519674 11.8949 0.581509 11.9719 0.655009L11.9917 0.67484L18.9917 7.67484L19.0116 7.69468C19.0862 7.77284 19.1469 7.858 19.1959 7.94784L19.1971 7.95134ZM10.0002 2.66634H3.00023V21.333H14.6669C15.9561 21.333 17.0002 20.2888 17.0002 18.9997V9.66634H11.1669C10.5229 9.66634 10.0002 9.14367 10.0002 8.49967V2.66634ZM7.66689 18.9997H12.3336C12.9776 18.9997 13.5002 18.477 13.5002 17.833C13.5002 17.189 12.9776 16.6663 12.3336 16.6663H7.66689C7.02289 16.6663 6.50023 17.189 6.50023 17.833C6.50023 18.477 7.02289 18.9997 7.66689 18.9997ZM6.50023 14.333H13.5002C14.1442 14.333 14.6669 13.8103 14.6669 13.1663C14.6669 12.5223 14.1442 11.9997 13.5002 11.9997H6.50023C5.85623 11.9997 5.33356 12.5223 5.33356 13.1663C5.33356 13.8103 5.85623 14.333 6.50023 14.333ZM15.3506 7.333L12.3336 4.316V7.333H15.3506Z" fill="white"/>
</svg>
