<svg width="13" height="14" viewBox="0 0 13 14" fill="none" xmlns="http://www.w3.org/2000/svg">
<path d="M10.875 13.25H2.125C1.43464 13.25 0.875 12.6904 0.875 12V3.25C0.875 2.55964 1.43464 2 2.125 2H3.375V0.75H4.625V2H8.375V0.75H9.625V2H10.875C11.5654 2 12.125 2.55964 12.125 3.25V12C12.125 12.6904 11.5654 13.25 10.875 13.25ZM2.125 5.75V12H10.875V5.75H2.125ZM2.125 3.25V4.5H10.875V3.25H2.125ZM9.625 10.75H8.375V9.5H9.625V10.75ZM7.125 10.75H5.875V9.5H7.125V10.75ZM4.625 10.75H3.375V9.5H4.625V10.75ZM9.625 8.25H8.375V7H9.625V8.25ZM7.125 8.25H5.875V7H7.125V8.25ZM4.625 8.25H3.375V7H4.625V8.25Z" fill="#78746D"/>
</svg>
