<svg width="50" height="50" viewBox="0 0 50 50" fill="none" xmlns="http://www.w3.org/2000/svg">
<circle cx="25" cy="25" r="24.5" stroke="#E3562A"/>
<g clip-path="url(#clip0_1517_12715)">
<path d="M36.736 18.424C35.9571 15.9105 33.6314 14.1978 31 14.2H19C16.3686 14.1979 14.0429 15.9105 13.264 18.424C13.0908 19.0002 13.0019 19.5984 13 20.2V29.8C13.0012 33.1132 15.6868 35.7988 19 35.8H31C34.3132 35.7987 36.9988 33.1132 36.9999 29.8V20.2C36.9981 19.5984 36.9092 19.0002 36.736 18.424ZM19 16.6H31C32.7637 16.6051 34.2656 17.8837 34.552 19.624L24.9999 24.832L15.448 19.624C15.7344 17.8837 17.2363 16.605 19 16.6ZM34.6 29.8C34.5942 31.7858 32.9858 33.3942 31 33.4H19C17.0142 33.3941 15.4058 31.7858 15.4 29.8V22.336L24.424 27.256C24.7839 27.4485 25.2161 27.4485 25.576 27.256L34.6 22.336V29.8Z" fill="#E3562A"/>
</g>
<defs>
<clipPath id="clip0_1517_12715">
<rect width="24" height="24" fill="white" transform="translate(13 13)"/>
</clipPath>
</defs>
</svg>
