<svg width="44" height="50" viewBox="0 0 44 50" fill="none" xmlns="http://www.w3.org/2000/svg">
<path fill-rule="evenodd" clip-rule="evenodd" d="M29.25 5.66671V3.25004C29.25 1.91604 30.3327 0.833374 31.6667 0.833374C33.0007 0.833374 34.0833 1.91604 34.0833 3.25004V5.66671C39.4242 5.66671 43.75 9.99496 43.75 15.3334V39.5C43.75 44.8385 39.4242 49.1667 34.0833 49.1667C27.1741 49.1667 16.8283 49.1667 9.91667 49.1667C4.57825 49.1667 0.25 44.8385 0.25 39.5V15.3334C0.25 9.99496 4.57825 5.66671 9.91667 5.66671V3.25004C9.91667 1.91604 10.9993 0.833374 12.3333 0.833374C13.6673 0.833374 14.75 1.91604 14.75 3.25004V5.66671H29.25ZM38.9167 25H5.08333V39.5C5.08333 42.168 7.24867 44.3334 9.91667 44.3334H34.0833C36.7537 44.3334 38.9167 42.168 38.9167 39.5V25ZM26.5748 33.833L29.9822 30.5173C30.9392 29.5869 32.469 29.6086 33.3994 30.5656C34.3298 31.5202 34.3081 33.0524 33.3535 33.9828L28.3848 38.8161C27.4955 39.6789 26.1011 39.7321 25.1513 38.9394L22.4302 36.6677C21.4055 35.8146 21.2677 34.2897 22.1232 33.265C22.9763 32.2404 24.5012 32.1026 25.5259 32.9581L26.5748 33.833ZM34.0833 10.5V12.9167C34.0833 14.2507 33.0007 15.3334 31.6667 15.3334C30.3327 15.3334 29.25 14.2507 29.25 12.9167V10.5H14.75V12.9167C14.75 14.2507 13.6673 15.3334 12.3333 15.3334C10.9993 15.3334 9.91667 14.2507 9.91667 12.9167V10.5C7.24867 10.5 5.08333 12.663 5.08333 15.3334V20.1667H38.9167V15.3334C38.9167 12.663 36.7537 10.5 34.0833 10.5Z" fill="white"/>
</svg>
