<svg width="50" height="50" viewBox="0 0 50 50" fill="none" xmlns="http://www.w3.org/2000/svg">
<path fill-rule="evenodd" clip-rule="evenodd" d="M5.66665 34.6667V39.5C5.66665 44.8409 9.9949 49.1667 15.3333 49.1667H39.5C44.8408 49.1667 49.1667 44.8409 49.1667 39.5C49.1667 31.455 49.1667 18.5475 49.1667 10.5C49.1667 5.16162 44.8408 0.833374 39.5 0.833374C32.5907 0.833374 22.245 0.833374 15.3333 0.833374C9.9949 0.833374 5.66665 5.16162 5.66665 10.5V15.3334C5.66665 16.6674 6.74932 17.75 8.08332 17.75C9.41732 17.75 10.5 16.6674 10.5 15.3334C10.5 15.3334 10.5 13.069 10.5 10.5C10.5 7.83204 12.6653 5.66671 15.3333 5.66671H39.5C42.1704 5.66671 44.3333 7.83204 44.3333 10.5V39.5C44.3333 42.1705 42.1704 44.3334 39.5 44.3334C32.5907 44.3334 22.245 44.3334 15.3333 44.3334C12.6653 44.3334 10.5 42.1705 10.5 39.5C10.5 36.9335 10.5 34.6667 10.5 34.6667C10.5 33.3351 9.41732 32.25 8.08332 32.25C6.74932 32.25 5.66665 33.3351 5.66665 34.6667ZM23.9995 22.5834L20.8747 19.461C19.9322 18.5161 19.9322 16.9864 20.8747 16.0415C21.8196 15.099 23.3494 15.099 24.2919 16.0415L31.5419 23.2915C32.4868 24.2364 32.4868 25.7661 31.5419 26.711L24.2919 33.961C23.3494 34.9035 21.8196 34.9035 20.8747 33.961C19.9322 33.0161 19.9322 31.4864 20.8747 30.5415L23.9995 27.4167H3.24998C1.91598 27.4167 0.833317 26.334 0.833317 25C0.833317 23.6685 1.91598 22.5834 3.24998 22.5834H23.9995Z" fill="white"/>
</svg>
