<svg width="40" height="50" viewBox="0 0 40 50" fill="none" xmlns="http://www.w3.org/2000/svg">
<path fill-rule="evenodd" clip-rule="evenodd" d="M20.0611 35.4402L4.71043 48.5947C3.99409 49.2089 2.98726 49.3497 2.12708 48.9556C1.26973 48.5614 0.722595 47.7041 0.722595 46.7597C0.722595 46.7597 0.722595 22.8794 0.722595 10.5028C0.722595 5.16424 5.05168 0.836548 10.3904 0.836548H29.7289C35.0704 0.836548 39.3995 5.16424 39.3995 10.5028V46.7597C39.3995 47.7041 38.8495 48.5614 37.9922 48.9556C37.1348 49.3497 36.1252 49.2089 35.4088 48.5947L20.0611 35.4402ZM34.5656 10.5028C34.5656 7.83354 32.3996 5.66841 29.7289 5.66841C24.0207 5.66841 16.1014 5.66841 10.3904 5.66841C7.71964 5.66841 5.5565 7.83354 5.5565 10.5028V41.5056L18.4873 30.4215C19.3926 29.646 20.7266 29.646 21.6319 30.4215L34.5656 41.5056V10.5028Z" fill="white"/>
</svg>
