<svg width="20" height="20" viewBox="0 0 20 20"  fill='current' xmlns="http://www.w3.org/2000/svg">
<path d="M7.17949 0H1.53846C0.666667 0 0 0.666667 0 1.53846V7.17949C0 8.05128 0.666667 8.71795 1.53846 8.71795H7.17949C8.05128 8.71795 8.71795 8.05128 8.71795 7.17949V1.53846C8.71795 0.666667 8.05128 0 7.17949 0ZM7.17949 7.17949H1.53846V1.53846H7.17949V7.17949Z" fill="current"/>
<path d="M18.4615 0H12.8204C11.9486 0 11.282 0.666667 11.282 1.53846V7.17949C11.282 8.05128 11.9486 8.71795 12.8204 8.71795H18.4615C19.3333 8.71795 19.9999 8.05128 19.9999 7.17949V1.53846C19.9999 0.666667 19.3333 0 18.4615 0ZM18.4615 7.17949H12.8204V1.53846H18.4615V7.17949Z" fill="current"/>
<path d="M7.17949 11.282H1.53846C0.666667 11.282 0 11.9486 0 12.8204V18.4615C0 19.3333 0.666667 19.9999 1.53846 19.9999H7.17949C8.05128 19.9999 8.71795 19.3333 8.71795 18.4615V12.8204C8.71795 11.9486 8.05128 11.282 7.17949 11.282ZM7.17949 18.4615H1.53846V12.8204H7.17949V18.4615Z" fill="current"/>
<path d="M18.4615 11.282H12.8204C11.9486 11.282 11.282 11.9486 11.282 12.8204V18.4615C11.282 19.3333 11.9486 19.9999 12.8204 19.9999H18.4615C19.3333 19.9999 19.9999 19.3333 19.9999 18.4615V12.8204C19.9999 11.9486 19.3333 11.282 18.4615 11.282ZM18.4615 18.4615H12.8204V12.8204H18.4615V18.4615Z" fill="current"/>
</svg>
