<svg width="94" height="64" viewBox="0 0 94 64" fill="none" xmlns="http://www.w3.org/2000/svg">
<path d="M46.9031 37.6C57.286 37.6 65.7031 29.183 65.7031 18.8C65.7031 8.41705 57.286 0 46.9031 0C36.5201 0 28.1031 8.41705 28.1031 18.8C28.1031 29.183 36.5201 37.6 46.9031 37.6Z" fill="#FFA40B"/>
<path d="M49.0154 37.4592C49.3779 37.4256 49.7393 37.3815 50.0993 37.327C50.7168 37.2205 51.3285 37.0833 51.9323 36.9157C52.5362 36.7478 53.1313 36.5498 53.7154 36.3224C54.2996 36.0956 54.8722 35.8397 55.4309 35.5557C55.9896 35.2707 56.5337 34.958 57.0612 34.6186C57.5882 34.28 58.098 33.9153 58.5887 33.5259C59.08 33.1365 59.5516 32.7227 60.0016 32.2862C60.4512 31.8496 60.8786 31.3908 61.2824 30.9115C61.686 30.4323 62.0654 29.9333 62.4192 29.4163C62.7738 28.8984 63.1022 28.3631 63.4032 27.8124C63.7035 27.2624 63.976 26.6977 64.2199 26.1204C64.4636 25.543 64.6783 24.9538 64.8632 24.355C64.9296 24.1154 64.9913 23.8744 65.0482 23.6324L53.4657 12.0498H40.3644L40.147 12.4229L36.8629 18.0482L38.646 19.8312V27.0898L49.0154 37.4592Z" fill="#FF7712"/>
<path d="M40.3644 12.0481L40.147 12.4212L36.8629 18.0465H38.646V27.0881H50.6662H55.1841V18.0465H56.9672L53.4657 12.0481H40.3644ZM41.228 13.5521H41.6452V16.5425H39.4832L41.228 13.5521ZM43.1492 13.5521H44.6532V16.5425H43.1492V13.5521ZM46.1572 13.5521H47.6612V16.5425H46.1572V13.5521ZM49.1652 13.5521H50.6692V16.5425H49.1652V13.5521ZM52.1732 13.5521H52.602L54.3469 16.5425H52.1732V13.5521ZM50.6662 18.0465H53.6801V25.5841H50.6662V18.0465ZM40.15 18.0641H49.1622V25.5841H40.15V18.0641Z" fill="#F5F5F5"/>
<path d="M19.3656 46.6849C19.179 46.7409 19.0063 46.8016 18.8476 46.8669C18.689 46.9229 18.5536 46.9743 18.4416 47.0209C18.311 47.0769 18.1943 47.1283 18.0916 47.1749L17.5456 45.2289C17.9283 45.0703 18.339 44.9256 18.7776 44.7949C19.151 44.6829 19.5803 44.5849 20.0656 44.5009C20.5603 44.4076 21.0736 44.3609 21.6056 44.3609C22.5576 44.3609 23.3696 44.4543 24.0416 44.6409C24.723 44.8276 25.2783 45.0843 25.7076 45.4109C26.1463 45.7283 26.4683 46.0969 26.6736 46.5169C26.879 46.9276 26.9816 47.3663 26.9816 47.8329C26.9816 48.2063 26.921 48.5889 26.7996 48.9809C26.6876 49.3636 26.4963 49.7276 26.2256 50.0729C25.955 50.4183 25.5956 50.7263 25.1476 50.9969C24.709 51.2676 24.163 51.4776 23.5096 51.6269C24.0136 51.7389 24.4663 51.9349 24.8676 52.2149C25.269 52.4949 25.6096 52.7936 25.8896 53.1109C26.179 53.4283 26.3983 53.7269 26.5476 54.0069C26.7063 54.2869 26.7856 54.4923 26.7856 54.6229L24.7696 55.3369C24.6763 55.1876 24.5736 54.9916 24.4616 54.7489C24.3496 54.4969 24.1676 54.2216 23.9156 53.9229C23.673 53.6149 23.3276 53.2883 22.8796 52.9429C22.441 52.5883 21.8483 52.2243 21.1016 51.8509C21.0736 52.5509 21.055 53.1716 21.0456 53.7129C21.0456 54.2449 21.0456 54.5996 21.0456 54.7769H18.8896C18.899 54.4409 18.9083 53.9929 18.9176 53.4329C18.9363 52.8636 18.9596 52.2383 18.9876 51.5569C18.7823 51.5009 18.6096 51.4449 18.4696 51.3889C18.3296 51.3236 18.2176 51.2629 18.1336 51.2069C18.031 51.1509 17.947 51.0949 17.8816 51.0389L18.4556 49.7929C18.5023 49.8116 18.5536 49.8303 18.6096 49.8489C18.7496 49.8863 18.899 49.9283 19.0576 49.9749C19.095 49.3963 19.137 48.8269 19.1836 48.2669C19.2303 47.7069 19.291 47.1796 19.3656 46.6849ZM21.8856 50.3669C22.3803 50.3669 22.8236 50.2643 23.2156 50.0589C23.617 49.8536 23.9436 49.5969 24.1956 49.2889C24.4476 48.9716 24.611 48.6356 24.6856 48.2809C24.7696 47.9169 24.7416 47.5809 24.6016 47.2729C24.4616 46.9556 24.1956 46.6943 23.8036 46.4889C23.4116 46.2836 22.875 46.1809 22.1936 46.1809C22.1096 46.1809 22.021 46.1856 21.9276 46.1949C21.8436 46.1949 21.7596 46.1996 21.6756 46.2089C21.5356 46.6849 21.4236 47.2963 21.3396 48.0429C21.265 48.7896 21.2043 49.5549 21.1576 50.3389C21.279 50.3483 21.3956 50.3576 21.5076 50.3669C21.629 50.3669 21.755 50.3669 21.8856 50.3669ZM30.3025 51.8789C29.7145 51.9816 29.2758 52.0283 28.9865 52.0189C28.6972 52.0003 28.5478 51.9909 28.5385 51.9909C28.5572 52.2056 28.6225 52.4343 28.7345 52.6769C28.8372 52.8823 28.9865 53.0503 29.1825 53.1809C29.3878 53.3023 29.6538 53.3629 29.9805 53.3629C30.4098 53.3629 30.7505 53.2649 31.0025 53.0689C31.2638 52.8636 31.4458 52.6116 31.5485 52.3129L32.6965 53.1949C32.6405 53.4189 32.5285 53.6569 32.3605 53.9089C32.1925 54.1516 31.9778 54.3803 31.7165 54.5949C31.4552 54.8096 31.1518 54.9823 30.8065 55.1129C30.4612 55.2529 30.0832 55.3229 29.6725 55.3229C28.8605 55.3229 28.2305 55.1269 27.7825 54.7349C27.3345 54.3336 27.0405 53.8343 26.9005 53.2369C26.7698 52.6396 26.7745 51.9956 26.9145 51.3049C27.0545 50.6143 27.2972 49.9703 27.6425 49.3729C27.9878 48.7756 28.4218 48.2809 28.9445 47.8889C29.4672 47.4876 30.0458 47.2869 30.6805 47.2869C31.1658 47.2869 31.5625 47.3896 31.8705 47.5949C32.1785 47.7909 32.4025 48.0476 32.5425 48.3649C32.6918 48.6729 32.7525 49.0136 32.7245 49.3869C32.7058 49.7603 32.5985 50.1196 32.4025 50.4649C32.2158 50.8009 31.9452 51.0996 31.5905 51.3609C31.2452 51.6129 30.8158 51.7856 30.3025 51.8789ZM30.7225 49.0789C30.4892 49.0789 30.2652 49.1443 30.0505 49.2749C29.8358 49.3963 29.6398 49.5549 29.4625 49.7509C29.2852 49.9376 29.1358 50.1476 29.0145 50.3809C28.8932 50.6049 28.8045 50.8149 28.7485 51.0109C29.5418 50.9643 30.1298 50.8383 30.5125 50.6329C30.8952 50.4276 31.1332 50.2129 31.2265 49.9889C31.3292 49.7556 31.3198 49.5456 31.1985 49.3589C31.0865 49.1723 30.9278 49.0789 30.7225 49.0789ZM35.722 45.9289C35.7034 46.1809 35.6847 46.4329 35.666 46.6849C35.6474 46.9276 35.6287 47.1703 35.61 47.4129C36.0207 47.4316 36.3847 47.4689 36.702 47.5249C37.0287 47.5716 37.276 47.6183 37.444 47.6649L37.248 49.5969C37.024 49.4849 36.7627 49.4056 36.464 49.3589C36.1747 49.3029 35.8667 49.2703 35.54 49.2609C35.5214 50.6516 35.54 51.8229 35.596 52.7749C35.6614 53.7176 35.7034 54.3803 35.722 54.7629H33.762C33.7527 54.5949 33.7387 54.3289 33.72 53.9649C33.7014 53.5916 33.6827 53.1623 33.664 52.6769C33.6547 52.1916 33.6407 51.6689 33.622 51.1089C33.6127 50.5396 33.6034 49.9749 33.594 49.4149C33.2207 49.4803 32.8754 49.5736 32.558 49.6949L32.362 47.8749C32.726 47.7163 33.132 47.5996 33.58 47.5249C33.58 47.2169 33.58 46.9276 33.58 46.6569C33.58 46.3863 33.5847 46.1436 33.594 45.9289H35.722ZM41.7405 47.5109H43.5605V54.7769H41.7405V53.1109C41.6565 53.3163 41.5492 53.5309 41.4185 53.7549C41.2878 53.9789 41.1338 54.1889 40.9565 54.3849C40.7885 54.5716 40.5925 54.7256 40.3685 54.8469C40.1538 54.9776 39.9158 55.0429 39.6545 55.0429C39.0478 55.0429 38.5532 54.8516 38.1705 54.4689C37.7972 54.0863 37.5265 53.6103 37.3585 53.0409C37.1905 52.4623 37.1252 51.8416 37.1625 51.1789C37.1998 50.5069 37.3258 49.8863 37.5405 49.3169C37.7645 48.7383 38.0725 48.2576 38.4645 47.8749C38.8658 47.4923 39.3418 47.3009 39.8925 47.3009C40.2098 47.3009 40.4758 47.3663 40.6905 47.4969C40.9052 47.6183 41.0825 47.7723 41.2225 47.9589C41.3718 48.1456 41.4838 48.3556 41.5585 48.5889C41.6425 48.8129 41.7032 49.0229 41.7405 49.2189V47.5109ZM39.8225 52.9289C39.9812 52.9289 40.1538 52.8823 40.3405 52.7889C40.5365 52.6863 40.7138 52.5509 40.8725 52.3829C41.0405 52.2056 41.1805 52.0003 41.2925 51.7669C41.4045 51.5336 41.4605 51.2863 41.4605 51.0249C41.4605 50.9689 41.4512 50.8523 41.4325 50.6749C41.4232 50.4976 41.3765 50.3109 41.2925 50.1149C41.2178 49.9189 41.0965 49.7463 40.9285 49.5969C40.7698 49.4476 40.5412 49.3729 40.2425 49.3729C40.0185 49.3729 39.8225 49.4616 39.6545 49.6389C39.4958 49.8163 39.3698 50.0356 39.2765 50.2969C39.1832 50.5583 39.1225 50.8429 39.0945 51.1509C39.0665 51.4589 39.0758 51.7436 39.1225 52.0049C39.1692 52.2663 39.2485 52.4856 39.3605 52.6629C39.4818 52.8403 39.6358 52.9289 39.8225 52.9289ZM46.8388 46.0969C46.7175 46.0783 46.4655 46.0829 46.0828 46.1109C45.7002 46.1296 45.2102 46.1949 44.6128 46.3069C44.5008 46.3256 44.3795 46.2276 44.2488 46.0129C44.1275 45.7983 44.0715 45.5556 44.0808 45.2849C44.0902 45.0143 44.2068 44.7669 44.4308 44.5429C44.6642 44.3096 45.0748 44.1929 45.6628 44.1929C46.0548 44.1929 46.3628 44.2443 46.5868 44.3469C46.8108 44.4403 46.9742 44.5569 47.0768 44.6969C47.1795 44.8369 47.2308 44.9909 47.2308 45.1589C47.2402 45.3269 47.2215 45.4809 47.1748 45.6209C47.1282 45.7609 47.0675 45.8776 46.9928 45.9709C46.9275 46.0643 46.8762 46.1063 46.8388 46.0969ZM46.6988 47.6369C46.6242 48.7943 46.5775 49.7696 46.5588 50.5629C46.5495 51.3563 46.5495 52.0236 46.5588 52.5649C46.5775 53.1063 46.6008 53.5496 46.6288 53.8949C46.6568 54.2309 46.6802 54.5203 46.6988 54.7629H44.6408C44.5382 54.3616 44.4728 53.8529 44.4448 53.2369C44.4262 52.6209 44.4215 51.9769 44.4308 51.3049C44.4495 50.6329 44.4822 49.9749 44.5288 49.3309C44.5755 48.6776 44.6175 48.1129 44.6548 47.6369H46.6988ZM49.4553 44.5009C49.3153 45.8169 49.2126 47.0116 49.1473 48.0849C49.0913 49.1489 49.0633 50.1009 49.0633 50.9409C49.0726 51.7809 49.1006 52.5136 49.1473 53.1389C49.194 53.7643 49.25 54.2963 49.3153 54.7349C48.9513 54.7349 48.5733 54.7396 48.1813 54.7489C47.7893 54.7583 47.5046 54.7629 47.3273 54.7629C47.1873 54.1656 47.094 53.4469 47.0473 52.6069C47.01 51.7576 47.0006 50.8663 47.0193 49.9329C47.038 48.9996 47.0846 48.0616 47.1593 47.1189C47.2433 46.1669 47.3413 45.2943 47.4533 44.5009H49.4553ZM53.3156 53.0129C53.6983 53.0129 54.0203 52.9709 54.2816 52.8869C54.5523 52.8029 54.7716 52.7003 54.9396 52.5789C55.1076 52.4576 55.2289 52.3316 55.3036 52.2009C55.3783 52.0609 55.4156 51.9396 55.4156 51.8369C55.4156 51.5289 55.2756 51.2816 54.9956 51.0949C54.7249 50.9083 54.3796 50.7449 53.9596 50.6049C53.5396 50.4649 53.0869 50.3296 52.6016 50.1989C52.1256 50.0683 51.6776 49.9049 51.2576 49.7089C50.8376 49.5129 50.4876 49.2656 50.2076 48.9669C49.9369 48.6683 49.8016 48.2856 49.8016 47.8189C49.8016 47.4176 49.8903 47.0116 50.0676 46.6009C50.2543 46.1903 50.5249 45.8216 50.8796 45.4949C51.2343 45.1589 51.6776 44.8883 52.2096 44.6829C52.7509 44.4683 53.3716 44.3609 54.0716 44.3609C54.5196 44.3609 54.9209 44.4216 55.2756 44.5429C55.6303 44.6549 55.9383 44.8043 56.1996 44.9909C56.4703 45.1683 56.6896 45.3736 56.8576 45.6069C57.0349 45.8403 57.1656 46.0689 57.2496 46.2929L55.7936 47.5669C55.6909 47.3616 55.5556 47.1796 55.3876 47.0209C55.2569 46.8903 55.0796 46.7689 54.8556 46.6569C54.6409 46.5449 54.3843 46.4889 54.0856 46.4889C53.7683 46.4889 53.4883 46.5309 53.2456 46.6149C53.0123 46.6989 52.8163 46.8063 52.6576 46.9369C52.4989 47.0583 52.3776 47.1983 52.2936 47.3569C52.2189 47.5063 52.1816 47.6463 52.1816 47.7769C52.1816 48.0289 52.3216 48.2529 52.6016 48.4489C52.8909 48.6356 53.2503 48.8176 53.6796 48.9949C54.1089 49.1723 54.5709 49.3589 55.0656 49.5549C55.5603 49.7416 56.0223 49.9563 56.4516 50.1989C56.8809 50.4416 57.2356 50.7263 57.5156 51.0529C57.8049 51.3703 57.9496 51.7529 57.9496 52.2009C57.9496 52.5929 57.8376 52.9616 57.6136 53.3069C57.3896 53.6523 57.0769 53.9556 56.6756 54.2169C56.2743 54.4783 55.7936 54.6836 55.2336 54.8329C54.6829 54.9916 54.0809 55.0709 53.4276 55.0709C52.9703 55.0709 52.5549 55.0289 52.1816 54.9449C51.8176 54.8703 51.4909 54.7676 51.2016 54.6369C50.9216 54.5063 50.6743 54.3569 50.4596 54.1889C50.2543 54.0209 50.0769 53.8483 49.9276 53.6709C49.5823 53.2603 49.3396 52.7936 49.1996 52.2709L50.7676 51.1929C50.8889 51.5289 51.0616 51.8323 51.2856 52.1029C51.4723 52.3269 51.7289 52.5369 52.0556 52.7329C52.3916 52.9196 52.8116 53.0129 53.3156 53.0129ZM62.2669 47.2169C62.8362 47.2169 63.2889 47.4083 63.6249 47.7909C63.9702 48.1736 64.2129 48.6543 64.3529 49.2329C64.4929 49.8023 64.5302 50.4229 64.4649 51.0949C64.4089 51.7669 64.2642 52.3923 64.0309 52.9709C63.8069 53.5403 63.4942 54.0163 63.0929 54.3989C62.6915 54.7816 62.2202 54.9729 61.6789 54.9729C61.4549 54.9729 61.2495 54.9309 61.0629 54.8469C60.8762 54.7629 60.7082 54.6556 60.5589 54.5249C60.4095 54.3849 60.2742 54.2356 60.1529 54.0769C60.0409 53.9089 59.9475 53.7456 59.8729 53.5869V57.1989H57.8569V47.5249H59.8729V49.4849C59.9755 49.2143 60.1015 48.9436 60.2509 48.6729C60.4002 48.4023 60.5729 48.1596 60.7689 47.9449C60.9649 47.7303 61.1842 47.5576 61.4269 47.4269C61.6789 47.2869 61.9589 47.2169 62.2669 47.2169ZM61.4969 52.9149C61.7302 52.9149 61.9355 52.8263 62.1129 52.6489C62.2902 52.4716 62.4302 52.2476 62.5329 51.9769C62.6449 51.7063 62.7149 51.4169 62.7429 51.1089C62.7802 50.8009 62.7709 50.5116 62.7149 50.2409C62.6682 49.9703 62.5702 49.7463 62.4209 49.5689C62.2809 49.3916 62.0895 49.3029 61.8469 49.3029C61.6602 49.3029 61.4735 49.3543 61.2869 49.4569C61.1095 49.5503 60.9509 49.6856 60.8109 49.8629C60.6709 50.0309 60.5542 50.2363 60.4609 50.4789C60.3769 50.7216 60.3349 50.9876 60.3349 51.2769C60.3349 51.4636 60.3535 51.6549 60.3909 51.8509C60.4375 52.0376 60.5075 52.2103 60.6009 52.3689C60.6942 52.5276 60.8155 52.6583 60.9649 52.7609C61.1142 52.8636 61.2915 52.9149 61.4969 52.9149ZM68.1945 47.1469C68.9971 47.1469 69.6505 47.3523 70.1545 47.7629C70.6585 48.1736 71.0225 48.6869 71.2465 49.3029C71.4705 49.9189 71.5591 50.5863 71.5125 51.3049C71.4658 52.0236 71.2931 52.6909 70.9945 53.3069C70.7051 53.9229 70.2945 54.4363 69.7625 54.8469C69.2305 55.2576 68.5911 55.4629 67.8445 55.4629C67.0978 55.4629 66.4771 55.2576 65.9825 54.8469C65.4971 54.4363 65.1378 53.9229 64.9045 53.3069C64.6805 52.6909 64.5778 52.0236 64.5965 51.3049C64.6245 50.5863 64.7738 49.9189 65.0445 49.3029C65.3245 48.6869 65.7258 48.1736 66.2485 47.7629C66.7805 47.3523 67.4291 47.1469 68.1945 47.1469ZM67.6905 53.5169C68.0265 53.5169 68.3111 53.4003 68.5445 53.1669C68.7778 52.9336 68.9598 52.6443 69.0905 52.2989C69.2211 51.9536 69.3005 51.5803 69.3285 51.1789C69.3658 50.7683 69.3471 50.3903 69.2725 50.0449C69.2071 49.6996 69.0858 49.4103 68.9085 49.1769C68.7311 48.9436 68.4978 48.8269 68.2085 48.8269C67.9471 48.8269 67.7091 48.9436 67.4945 49.1769C67.2891 49.4103 67.1165 49.6996 66.9765 50.0449C66.8458 50.3903 66.7525 50.7683 66.6965 51.1789C66.6498 51.5803 66.6498 51.9536 66.6965 52.2989C66.7431 52.6443 66.8458 52.9336 67.0045 53.1669C67.1725 53.4003 67.4011 53.5169 67.6905 53.5169ZM74.7279 45.9289C74.7092 46.1809 74.6906 46.4329 74.6719 46.6849C74.6532 46.9276 74.6346 47.1703 74.6159 47.4129C75.0266 47.4316 75.3906 47.4689 75.7079 47.5249C76.0346 47.5716 76.2819 47.6183 76.4499 47.6649L76.2539 49.5969C76.0299 49.4849 75.7686 49.4056 75.4699 49.3589C75.1806 49.3029 74.8726 49.2703 74.5459 49.2609C74.5272 50.6516 74.5459 51.8229 74.6019 52.7749C74.6672 53.7176 74.7092 54.3803 74.7279 54.7629H72.7679C72.7586 54.5949 72.7446 54.3289 72.7259 53.9649C72.7072 53.5916 72.6886 53.1623 72.6699 52.6769C72.6606 52.1916 72.6466 51.6689 72.6279 51.1089C72.6186 50.5396 72.6092 49.9749 72.5999 49.4149C72.2266 49.4803 71.8812 49.5736 71.5639 49.6949L71.3679 47.8749C71.7319 47.7163 72.1379 47.5996 72.5859 47.5249C72.5859 47.2169 72.5859 46.9276 72.5859 46.6569C72.5859 46.3863 72.5906 46.1436 72.5999 45.9289H74.7279Z" fill="#FA6017"/>
</svg>
