<svg width="48" height="48" viewBox="0 0 48 48" fill="none" xmlns="http://www.w3.org/2000/svg">
<rect width="48" height="48" rx="22" fill="#37D159"/>
<path d="M28.7101 20.29C28.8038 20.383 28.8782 20.4936 28.929 20.6154C28.9797 20.7373 29.0059 20.868 29.0059 21C29.0059 21.132 28.9797 21.2627 28.929 21.3846C28.8782 21.5064 28.8038 21.617 28.7101 21.71L22.7101 27.71C22.6171 27.8037 22.5065 27.8781 22.3846 27.9289C22.2628 27.9797 22.1321 28.0058 22.0001 28.0058C21.8681 28.0058 21.7373 27.9797 21.6155 27.9289C21.4936 27.8781 21.383 27.8037 21.2901 27.71L19.2901 25.71C19.1968 25.6168 19.1229 25.5061 19.0724 25.3842C19.0219 25.2624 18.996 25.1319 18.996 25C18.996 24.8681 19.0219 24.7376 19.0724 24.6158C19.1229 24.4939 19.1968 24.3832 19.2901 24.29C19.3833 24.1968 19.494 24.1228 19.6158 24.0723C19.7376 24.0219 19.8682 23.9959 20.0001 23.9959C20.1319 23.9959 20.2625 24.0219 20.3843 24.0723C20.5061 24.1228 20.6168 24.1968 20.7101 24.29L22.0001 25.59L27.2901 20.29C27.383 20.1963 27.4936 20.1219 27.6155 20.0711C27.7373 20.0203 27.8681 19.9942 28.0001 19.9942C28.1321 19.9942 28.2628 20.0203 28.3846 20.0711C28.5065 20.1219 28.6171 20.1963 28.7101 20.29ZM34.0001 24C34.0001 25.9778 33.4136 27.9112 32.3148 29.5557C31.2159 31.2002 29.6542 32.4819 27.8269 33.2388C25.9996 33.9957 23.989 34.1937 22.0492 33.8079C20.1094 33.422 18.3275 32.4696 16.929 31.0711C15.5305 29.6725 14.5781 27.8907 14.1922 25.9509C13.8064 24.0111 14.0044 22.0004 14.7613 20.1732C15.5181 18.3459 16.7999 16.7841 18.4444 15.6853C20.0889 14.5865 22.0223 14 24.0001 14C25.3133 14 26.6136 14.2587 27.8269 14.7612C29.0402 15.2638 30.1425 16.0003 31.0711 16.9289C31.9997 17.8575 32.7363 18.9599 33.2389 20.1732C33.7414 21.3864 34.0001 22.6868 34.0001 24ZM32.0001 24C32.0001 22.4177 31.5309 20.871 30.6518 19.5554C29.7728 18.2398 28.5233 17.2145 27.0615 16.609C25.5997 16.0035 23.9912 15.845 22.4393 16.1537C20.8875 16.4624 19.462 17.2243 18.3432 18.3431C17.2244 19.462 16.4625 20.8874 16.1538 22.4393C15.8451 23.9911 16.0035 25.5997 16.609 27.0615C17.2145 28.5233 18.2399 29.7727 19.5555 30.6518C20.8711 31.5308 22.4178 32 24.0001 32C26.1218 32 28.1566 31.1571 29.6569 29.6569C31.1572 28.1566 32.0001 26.1217 32.0001 24Z" fill="white"/>
</svg>
