<svg width="37" height="38" viewBox="0 0 37 38" fill="none" xmlns="http://www.w3.org/2000/svg">
<rect x="0.904785" y="2" width="35.6851" height="35.4545" rx="17.7273" fill="#E3562A"/>
<path d="M33.8268 4.72727C33.8268 6.91929 32.0369 8.70454 29.8188 8.70454C27.6006 8.70454 25.8108 6.91929 25.8108 4.72727C25.8108 2.53526 27.6006 0.75 29.8188 0.75C32.0369 0.75 33.8268 2.53526 33.8268 4.72727Z" fill="#E3562A" stroke="#FFF2F7" stroke-width="1.5"/>
<path d="M24.6332 23.2893C24.5065 23.1803 23.4614 22.2541 23.4614 19.3121C23.4614 18.3586 23.018 17.3507 22.2579 16.5879C21.8145 16.1521 21.3078 15.8252 20.7694 15.58C20.7694 15.5528 20.7694 15.5255 20.7694 15.4983C20.7694 14.7083 19.9459 14 19.0274 14C18.109 14 17.2855 14.7083 17.2855 15.4983C17.2855 15.5255 17.2855 15.5528 17.2855 15.58C16.7471 15.7979 16.2404 16.1521 15.797 16.5879C15.0369 17.3779 14.5935 18.3586 14.5935 19.3121C14.5935 22.2269 13.5483 23.1531 13.4217 23.2621C13.0733 23.4527 12.9149 23.8069 13.0099 24.161C13.105 24.5152 13.5167 24.7603 13.9601 24.7603H17.0638C16.9055 24.9238 16.9055 25.1689 17.0638 25.3324C17.5706 25.7955 18.2673 26.0407 18.9958 26.0407C19.7242 26.0407 20.421 25.7955 20.9277 25.3324C21.1177 25.1689 21.1177 24.9238 20.9277 24.7876H24.0632C24.5065 24.7876 24.8866 24.5424 25.0133 24.1883C25.14 23.8069 25.0133 23.4527 24.6332 23.2893ZM19.0274 14.8172C19.3125 14.8172 19.6609 15.0079 19.7559 15.2803C19.5025 15.2531 19.2808 15.2259 19.0274 15.2259C18.7741 15.2259 18.5207 15.2531 18.299 15.2803C18.394 15.0079 18.7424 14.8172 19.0274 14.8172ZM19.0274 16.0431C21.0227 16.0431 22.5113 17.7865 22.5113 19.3121C22.5113 20.4834 22.6696 21.3552 22.8913 22.0362H15.1953C15.417 21.3552 15.5753 20.4834 15.5753 19.3121C15.5436 17.7865 17.0322 16.0431 19.0274 16.0431ZM18.9958 25.1962C18.5207 25.1962 18.0773 25.0327 17.7289 24.7331H20.2309C19.9142 25.06 19.4708 25.1962 18.9958 25.1962ZM13.9601 23.9431C13.9601 23.9431 14.4035 23.6707 14.8469 22.8534H23.208C23.6198 23.6707 24.0948 23.9431 24.0948 23.9431H13.9601Z" fill="white"/>
</svg>
