<svg width="18" height="12" viewBox="0 0 18 12" fill="none" xmlns="http://www.w3.org/2000/svg">
<path d="M1.99301 6.98438C1.77578 6.98416 1.56439 7.05468 1.39081 7.18527C1.21722 7.31587 1.09088 7.49943 1.03089 7.70821C0.970904 7.91699 0.980528 8.13962 1.05831 8.34244C1.13609 8.54527 1.2778 8.71725 1.46201 8.83238L4.15001 11.5204C4.24292 11.6132 4.35321 11.6869 4.47457 11.7371C4.59594 11.7873 4.72601 11.8131 4.85736 11.8131C4.98871 11.813 5.11876 11.7871 5.2401 11.7368C5.36143 11.6865 5.47166 11.6128 5.56451 11.5199C5.65735 11.427 5.73099 11.3167 5.78121 11.1953C5.83143 11.0739 5.85726 10.9439 5.85721 10.8125C5.85717 10.6812 5.83125 10.5511 5.78094 10.4298C5.73063 10.3085 5.65692 10.1982 5.56401 10.1054L4.44301 8.98537H11.993C12.2582 8.98537 12.5126 8.88002 12.7001 8.69248C12.8877 8.50495 12.993 8.25059 12.993 7.98537C12.993 7.72016 12.8877 7.4658 12.7001 7.27827C12.5126 7.09073 12.2582 6.98537 11.993 6.98537H1.99301V6.98438Z" fill="#675FB5"/>
<path d="M16.007 5.0162C16.2242 5.01642 16.4356 4.9459 16.6092 4.81531C16.7828 4.68471 16.9091 4.50114 16.9691 4.29237C17.0291 4.08359 17.0195 3.86096 16.9417 3.65813C16.8639 3.45531 16.7222 3.28333 16.538 3.1682L13.85 0.480203C13.6624 0.292695 13.4079 0.187406 13.1427 0.1875C12.8774 0.187594 12.623 0.293062 12.4355 0.480703C12.248 0.668344 12.1427 0.922786 12.1428 1.18806C12.1429 1.45333 12.2484 1.70769 12.436 1.8952L13.557 3.0152H6.00702C5.7418 3.0152 5.48745 3.12056 5.29991 3.3081C5.11238 3.49563 5.00702 3.74999 5.00702 4.0152C5.00702 4.28042 5.11238 4.53477 5.29991 4.72231C5.48745 4.90985 5.7418 5.0152 6.00702 5.0152H16.007V5.0162Z" fill="#675FB5"/>
</svg>
