<svg width="34" height="34" viewBox="0 0 34 34" fill="none" xmlns="http://www.w3.org/2000/svg">
<path d="M32.3668 9.72969C30.9793 6.78884 28.782 4.31932 26.0137 2.58667C22.1634 0.18354 17.6028 -0.579886 13.1815 0.442442C8.7603 1.45813 4.99628 4.14008 2.59315 7.9904C0.183379 11.8407 -0.580047 16.3947 0.44228 20.8226C1.46461 25.2438 4.14656 29.0079 7.99024 31.411C10.6987 33.1038 13.8056 34 16.9854 34H17.1912C20.3577 33.9602 23.438 33.0441 26.1067 31.3579C26.8834 30.8666 27.1091 29.8443 26.6178 29.0676C26.1266 28.2909 25.1043 28.0652 24.3276 28.5564C22.1833 29.9173 19.7005 30.6542 17.1514 30.6874C14.5358 30.7206 11.98 29.997 9.74944 28.6095C6.64927 26.6711 4.49176 23.644 3.67522 20.0857C2.85869 16.5275 3.46943 12.8631 5.40787 9.76288C9.40424 3.37001 17.8617 1.4183 24.2545 5.41467C26.4851 6.80875 28.2509 8.79366 29.3662 11.157C30.4549 13.4605 30.8797 16.0163 30.5943 18.539C30.4947 19.4484 31.1453 20.2716 32.0614 20.3712C32.9709 20.4708 33.794 19.8202 33.8936 18.9041C34.2455 15.7641 33.7144 12.5909 32.3668 9.72969V9.72969Z" fill="#2BC155"/>
<path d="M22.4914 11.2379L14.4846 19.2447L11.5169 16.277C10.8662 15.6264 9.81725 15.6264 9.16661 16.277C8.51598 16.9276 8.51598 17.9766 9.16661 18.6272L13.3094 22.7701C13.6348 23.0954 14.0597 23.2547 14.4846 23.2547C14.9095 23.2547 15.3344 23.0954 15.6597 22.7701L24.835 13.5881C25.4856 12.9375 25.4856 11.8885 24.835 11.2379C24.1844 10.5939 23.1354 10.5939 22.4914 11.2379V11.2379Z" fill="#2BC155"/>
</svg>
