<svg width="34" height="34" viewBox="0 0 34 34" fill="none" xmlns="http://www.w3.org/2000/svg">
<path d="M32.3732 9.72891C30.9853 6.78711 28.7872 4.3168 26.0181 2.5836C22.1665 0.179693 17.6111 -0.583979 13.1818 0.438678C8.75911 1.45469 4.99388 4.13751 2.58997 7.98907C0.179425 11.8406 -0.584247 16.3961 0.43841 20.8254C1.46107 25.2481 4.14388 29.0133 7.9888 31.4172C10.6982 33.1106 13.806 34.007 16.9868 34.007H17.1927C20.3603 33.9672 23.4415 33.0508 26.1111 31.3641C26.888 30.8727 27.1138 29.85 26.6224 29.0731C26.131 28.2961 25.1083 28.0703 24.3314 28.5617C22.1865 29.9231 19.7029 30.6602 17.1529 30.6934C14.5365 30.7266 11.9798 30.0027 9.74857 28.6148C6.64739 26.6758 4.48919 23.6477 3.67239 20.0883C2.8556 16.5156 3.46653 12.85 5.4056 9.74883C9.40325 3.35391 17.8634 1.40157 24.2583 5.39922C26.4896 6.79376 28.256 8.7793 29.3716 11.1434C30.4607 13.4477 30.8857 16.0043 30.6001 18.5277C30.5005 19.4375 31.1513 20.2609 32.0677 20.3606C32.9775 20.4602 33.8009 19.8094 33.9005 18.893C34.2525 15.7652 33.7212 12.591 32.3732 9.72891V9.72891Z" fill="#FF2E2E"/>
<path d="M22.7644 11.2361C22.1136 10.5854 21.0644 10.5854 20.4136 11.2361L17.0003 14.656L13.5871 11.2428C12.9363 10.592 11.8871 10.592 11.2363 11.2428C10.5855 11.8936 10.5855 12.9428 11.2363 13.5936L14.6496 17.0068L11.2363 20.4201C10.5855 21.0709 10.5855 22.1201 11.2363 22.7709C11.5617 23.0963 11.9867 23.2557 12.4117 23.2557C12.8367 23.2557 13.2617 23.0963 13.5871 22.7709L17.0003 19.3576L20.4136 22.7709C20.739 23.0963 21.164 23.2557 21.589 23.2557C22.014 23.2557 22.439 23.0963 22.7644 22.7709C23.4152 22.1201 23.4152 21.0709 22.7644 20.4201L19.3511 17.0002L22.7644 13.5869C23.4152 12.9361 23.4152 11.8869 22.7644 11.2361V11.2361Z" fill="#FF2E2E"/>
</svg>
