<svg width="32" height="32" viewBox="0 0 32 32" fill="none" xmlns="http://www.w3.org/2000/svg">
<path d="M25.9166 0.416992H6.08329C4.5804 0.416992 3.13906 1.01401 2.07635 2.07672C1.01365 3.13943 0.416626 4.58076 0.416626 6.08366V16.0003C0.416626 16.376 0.565881 16.7364 0.831558 17.0021C1.09723 17.2677 1.45757 17.417 1.83329 17.417H8.91663V30.167C8.91596 30.438 8.99301 30.7034 9.13864 30.9319C9.28428 31.1604 9.49239 31.3424 9.73829 31.4562C9.98478 31.5696 10.2587 31.6099 10.5274 31.5723C10.7961 31.5346 11.0483 31.4205 11.2541 31.2437L15.2916 27.787L19.3291 31.2437C19.5857 31.4631 19.9123 31.5837 20.25 31.5837C20.5876 31.5837 20.9142 31.4631 21.1708 31.2437L25.2083 27.787L29.2458 31.2437C29.5024 31.4631 29.829 31.5837 30.1666 31.5837C30.3716 31.5822 30.5741 31.5388 30.7616 31.4562C31.0075 31.3424 31.2156 31.1604 31.3613 30.9319C31.5069 30.7034 31.584 30.438 31.5833 30.167V6.08366C31.5833 4.58076 30.9863 3.13943 29.9236 2.07672C28.8609 1.01401 27.4195 0.416992 25.9166 0.416992ZM3.24996 14.5837V6.08366C3.24996 5.33221 3.54847 4.61154 4.07982 4.08019C4.61118 3.54884 5.33185 3.25033 6.08329 3.25033C6.83474 3.25033 7.55541 3.54884 8.08676 4.08019C8.61812 4.61154 8.91663 5.33221 8.91663 6.08366V14.5837H3.24996ZM28.75 27.0928L26.1291 24.8403C25.8725 24.6208 25.546 24.5002 25.2083 24.5002C24.8706 24.5002 24.5441 24.6208 24.2875 24.8403L20.25 28.297L16.2125 24.8403C15.9559 24.6208 15.6293 24.5002 15.2916 24.5002C14.954 24.5002 14.6274 24.6208 14.3708 24.8403L11.75 27.0928V6.08366C11.7482 5.08842 11.4843 4.1112 10.985 3.25033H25.9166C26.6681 3.25033 27.3887 3.54884 27.9201 4.08019C28.4515 4.61154 28.75 5.33221 28.75 6.08366V27.0928ZM25.9166 7.50032C25.9166 7.87605 25.7674 8.23638 25.5017 8.50206C25.236 8.76774 24.8757 8.91699 24.5 8.91699H16C15.6242 8.91699 15.2639 8.76774 14.9982 8.50206C14.7326 8.23638 14.5833 7.87605 14.5833 7.50032C14.5833 7.1246 14.7326 6.76427 14.9982 6.49859C15.2639 6.23291 15.6242 6.08366 16 6.08366H24.5C24.8757 6.08366 25.236 6.23291 25.5017 6.49859C25.7674 6.76427 25.9166 7.1246 25.9166 7.50032ZM25.9166 13.167C25.9166 13.5427 25.7674 13.903 25.5017 14.1687C25.236 14.4344 24.8757 14.5837 24.5 14.5837H16C15.6242 14.5837 15.2639 14.4344 14.9982 14.1687C14.7326 13.903 14.5833 13.5427 14.5833 13.167C14.5833 12.7913 14.7326 12.4309 14.9982 12.1653C15.2639 11.8996 15.6242 11.7503 16 11.7503H24.5C24.8757 11.7503 25.236 11.8996 25.5017 12.1653C25.7674 12.4309 25.9166 12.7913 25.9166 13.167ZM25.9166 18.8337C25.9166 19.2094 25.7674 19.5697 25.5017 19.8354C25.236 20.1011 24.8757 20.2503 24.5 20.2503H16C15.6242 20.2503 15.2639 20.1011 14.9982 19.8354C14.7326 19.5697 14.5833 19.2094 14.5833 18.8337C14.5833 18.4579 14.7326 18.0976 14.9982 17.8319C15.2639 17.5662 15.6242 17.417 16 17.417H24.5C24.8757 17.417 25.236 17.5662 25.5017 17.8319C25.7674 18.0976 25.9166 18.4579 25.9166 18.8337Z" fill="#858585"/>
</svg>
