<svg width="50" height="50" viewBox="0 0 50 50" fill="none" xmlns="http://www.w3.org/2000/svg">
<circle cx="25" cy="25" r="24.5" stroke="#E3562A"/>
<path fill-rule="evenodd" clip-rule="evenodd" d="M15 16.0211C14.998 15.9341 15.007 15.8461 15.029 15.7571C15.163 15.2221 15.707 14.8961 16.242 15.0301C16.242 15.0301 18.192 15.5171 19.369 15.8121C20.265 16.0351 20.964 16.7351 21.188 17.6311C21.359 18.3151 21.596 19.2621 21.764 19.9341C21.977 20.7851 21.727 21.6871 21.106 22.3081L19.145 24.2691C20.686 27.0281 22.972 29.3151 25.731 30.8541L27.692 28.8931C28.313 28.2721 29.214 28.0231 30.066 28.2361C30.738 28.4041 31.684 28.6401 32.369 28.8121C33.265 29.0351 33.964 29.7351 34.188 30.6311L34.965 33.7391C34.988 33.8221 35 33.9101 35 34.0001C35 34.5521 34.551 35.0001 34 35.0001C23.521 35.0001 15.011 26.4981 15 16.0211ZM32.707 32.9511L32.248 31.1161C32.203 30.9371 32.063 30.7971 31.884 30.7521C31.199 30.5811 30.253 30.3441 29.581 30.1761C29.411 30.1341 29.23 30.1831 29.106 30.3081L27.644 31.7701C29.228 32.4101 30.93 32.8181 32.707 32.9511ZM17.048 17.2931C17.182 19.0711 17.59 20.7731 18.229 22.3561L19.692 20.8931C19.816 20.7691 19.866 20.5891 19.823 20.4191C19.655 19.7471 19.419 18.8001 19.248 18.1161C19.203 17.9371 19.063 17.7971 18.884 17.7521L17.048 17.2931Z" fill="#E3562A"/>
</svg>
