<svg width="20" height="20" viewBox="0 0 20 20" fill="none" xmlns="http://www.w3.org/2000/svg">
<path d="M5.99963 15C6.55192 15 6.99963 15.4477 6.99963 16C6.99963 16.5523 6.55192 17 5.99963 17H2.99963C1.34278 17 -0.000366211 15.6569 -0.000366211 14V8C-0.000366211 6.34315 1.34278 5 2.99963 5H16.9996C18.6565 5 19.9996 6.34315 19.9996 8V14C19.9996 15.6569 18.6565 17 16.9996 17H13.9996C13.4473 17 12.9996 16.5523 12.9996 16C12.9996 15.4477 13.4473 15 13.9996 15H16.9996C17.5519 15 17.9996 14.5523 17.9996 14V8C17.9996 7.44772 17.5519 7 16.9996 7H2.99963C2.44735 7 1.99963 7.44772 1.99963 8V14C1.99963 14.5523 2.44735 15 2.99963 15H5.99963Z" fill="#E3562A"/>
<path d="M12.9993 5V2H6.99927V5H12.9993ZM6.99927 0H12.9993C14.1038 0 14.9993 0.895431 14.9993 2V6C14.9993 6.55229 14.5516 7 13.9993 7H5.99927C5.44698 7 4.99927 6.55229 4.99927 6V2C4.99927 0.895431 5.8947 0 6.99927 0Z" fill="#E3562A"/>
<path d="M6.99927 14V18H12.9993V14H6.99927ZM5.99927 12H13.9993C14.5516 12 14.9993 12.4477 14.9993 13V18C14.9993 19.1046 14.1038 20 12.9993 20H6.99927C5.8947 20 4.99927 19.1046 4.99927 18V13C4.99927 12.4477 5.44698 12 5.99927 12Z" fill="#E3562A"/>
<path d="M3.99963 14C3.44735 14 2.99963 13.5523 2.99963 13C2.99963 12.4477 3.44735 12 3.99963 12H15.9996C16.5519 12 16.9996 12.4477 16.9996 13C16.9996 13.5523 16.5519 14 15.9996 14H3.99963Z" fill="#E3562A"/>
<path d="M4.49927 10.5C3.94698 10.5 3.49927 10.0523 3.49927 9.50001C3.49927 8.94772 3.94698 8.5 4.49927 8.5C5.05155 8.5 5.49926 8.94772 5.49926 9.50001C5.49926 10.0523 5.05155 10.5 4.49927 10.5Z" fill="#E3562A"/>
</svg>
