<svg width="134" height="16" viewBox="0 0 134 16" fill="none" xmlns="http://www.w3.org/2000/svg">
<path d="M124.034 0.556577L121.837 4.69357L116.922 5.35911C116.04 5.47784 115.687 6.48709 116.326 7.06515L119.883 10.2835L119.042 14.8298C118.89 15.6516 119.822 16.2671 120.603 15.8828L125 13.7362L129.397 15.8828C130.178 16.264 131.11 15.6516 130.958 14.8298L130.117 10.2835L133.674 7.06515C134.313 6.48709 133.96 5.47784 133.078 5.35911L128.163 4.69357L125.966 0.556577C125.572 -0.180831 124.431 -0.190205 124.034 0.556577Z" fill="#FFBC39"/>
<path d="M95.0344 0.556577L92.8374 4.69357L87.9219 5.35911C87.0404 5.47784 86.6871 6.48709 87.3264 7.06515L90.8826 10.2835L90.0415 14.8298C89.8901 15.6516 90.8221 16.2671 91.6026 15.8828L96 13.7362L100.397 15.8828C101.178 16.264 102.11 15.6516 101.958 14.8298L101.117 10.2835L104.674 7.06515C105.313 6.48709 104.96 5.47784 104.078 5.35911L99.1626 4.69357L96.9656 0.556577C96.572 -0.180831 95.4314 -0.190205 95.0344 0.556577Z" fill="#FFBC39"/>
<path d="M66.0344 0.556577L63.8374 4.69357L58.9219 5.35911C58.0404 5.47784 57.6871 6.48709 58.3264 7.06515L61.8826 10.2835L61.0415 14.8298C60.8901 15.6516 61.8221 16.2671 62.6026 15.8828L67 13.7362L71.3974 15.8828C72.1779 16.264 73.1099 15.6516 72.9585 14.8298L72.1174 10.2835L75.6736 7.06515C76.3129 6.48709 75.9596 5.47784 75.0781 5.35911L70.1626 4.69357L67.9656 0.556577C67.572 -0.180831 66.4314 -0.190205 66.0344 0.556577Z" fill="#FFBC39"/>
<path d="M37.0344 0.556577L34.8374 4.69357L29.9219 5.35911C29.0404 5.47784 28.6871 6.48709 29.3264 7.06515L32.8826 10.2835L32.0415 14.8298C31.8901 15.6516 32.8221 16.2671 33.6026 15.8828L38 13.7362L42.3974 15.8828C43.1779 16.264 44.1099 15.6516 43.9585 14.8298L43.1174 10.2835L46.6736 7.06515C47.3129 6.48709 46.9596 5.47784 46.0781 5.35911L41.1626 4.69357L38.9656 0.556577C38.572 -0.180831 37.4314 -0.190205 37.0344 0.556577Z" fill="#FFBC39"/>
<path d="M8.03439 0.556577L5.83739 4.69357L0.921884 5.35911C0.0403898 5.47784 -0.312881 6.48709 0.326371 7.06515L3.88263 10.2835L3.04151 14.8298C2.8901 15.6516 3.82207 16.2671 4.60262 15.8828L9 13.7362L13.3974 15.8828C14.1779 16.264 15.1099 15.6516 14.9585 14.8298L14.1174 10.2835L17.6736 7.06515C18.3129 6.48709 17.9596 5.47784 17.0781 5.35911L12.1626 4.69357L9.96561 0.556577C9.57196 -0.180831 8.4314 -0.190205 8.03439 0.556577Z" fill="#FFBC39"/>
</svg>
