<svg width="25" height="22" viewBox="0 0 25 22" fill="current" xmlns="http://www.w3.org/2000/svg">
<path d="M23.5408 12.1428H12.3689C12.2579 12.1428 12.1514 12.1999 12.0732 12.3014C11.995 12.403 11.9515 12.5404 11.9524 12.6834L11.9951 19.6107C11.9969 19.9053 12.1828 20.1428 12.4116 20.1428H16.0867C16.3167 20.1428 16.5032 19.9026 16.5032 19.6064C16.5032 19.3102 16.3167 19.07 16.0867 19.07H12.8248L12.7888 13.2156H23.1275L23.1636 19.07H19.8656C19.6356 19.07 19.4491 19.3102 19.4491 19.6064C19.4491 19.9026 19.6356 20.1428 19.8656 20.1428H23.5835C23.6945 20.1428 23.801 20.0858 23.8792 19.9842C23.9574 19.8827 24.0009 19.7452 24 19.6022L23.9573 12.675C23.9555 12.3803 23.7696 12.1428 23.5408 12.1428Z" fill="current" stroke="current" stroke-width="0.7"/>
<path d="M18.3332 19.3032C18.2574 19.1133 18.0707 18.9895 17.8734 19.0007C17.6777 19.0117 17.5056 19.1532 17.4485 19.3486C17.3921 19.5412 17.4582 19.7588 17.6122 19.8808C17.7715 20.0071 17.9932 20.0146 18.16 19.8994C18.3454 19.7715 18.4169 19.5166 18.3332 19.3032Z" fill="current" stroke="current" stroke-width="0.5"/>
<path d="M15.6787 15.5714L20.2735 15.5714C20.5169 15.5714 20.7142 15.5714 20.7142 15.5714C20.7142 15.5714 20.5169 15.5714 20.2735 15.5714L15.6787 15.5714C15.4354 15.5714 15.238 15.5714 15.238 15.5714C15.238 15.5714 15.4354 15.5714 15.6787 15.5714Z" fill="current"/>
<path d="M15.6787 15.5714L20.2735 15.5714C20.5169 15.5714 20.7142 15.5714 20.7142 15.5714C20.7142 15.5714 20.5169 15.5714 20.2735 15.5714L15.6787 15.5714C15.4354 15.5714 15.238 15.5714 15.238 15.5714C15.238 15.5714 15.4354 15.5714 15.6787 15.5714Z" stroke="current" stroke-width="0.8"/>
<path d="M5.36265 11.8042C2.95708 11.8042 1 13.8467 1 16.3573C1 18.8679 2.95708 20.9104 5.36265 20.9104C7.76822 20.9104 9.72534 18.8679 9.72534 16.3573C9.72534 13.8467 7.76822 11.8042 5.36265 11.8042ZM5.36265 19.9282C3.47607 19.9282 1.94122 18.3263 1.94122 16.3573C1.94122 14.3883 3.47607 12.7863 5.36265 12.7863C7.24927 12.7863 8.78412 14.3883 8.78412 16.3573C8.78412 18.3263 7.24927 19.9282 5.36265 19.9282Z" fill="current" stroke="current" stroke-width="0.7"/>
<path d="M5.36265 1.0896C2.95708 1.0896 1 3.13206 1 5.64266C1 8.15322 2.95708 10.1957 5.36265 10.1957C7.76822 10.1957 9.72534 8.15322 9.72534 5.64266C9.72534 3.13206 7.76822 1.0896 5.36265 1.0896ZM5.36265 9.21359C3.47607 9.21359 1.94122 7.61166 1.94122 5.64266C1.94122 3.67362 3.47607 2.07169 5.36265 2.07169C7.24927 2.07169 8.78412 3.67362 8.78412 5.64266C8.78412 7.61166 7.24927 9.21359 5.36265 9.21359Z" fill="current" stroke="current" stroke-width="0.7"/>
<path d="M6.59216 4.35965C6.40843 4.16784 6.1104 4.16789 5.92662 4.3597L5.36279 4.94815L4.79899 4.3597C4.61532 4.16799 4.31728 4.16794 4.13346 4.35965C3.94969 4.55137 3.94964 4.86232 4.13341 5.05413L4.69734 5.64268L4.13341 6.23122C3.94964 6.42299 3.94969 6.73393 4.13346 6.9257C4.22532 7.0216 4.34575 7.06953 4.46618 7.06953C4.58661 7.06953 4.70708 7.02155 4.79895 6.92565L5.36279 6.3372L5.92662 6.92565C6.01849 7.02155 6.13896 7.06953 6.25939 7.06953C6.37982 7.06953 6.50025 7.02155 6.59211 6.9257C6.77588 6.73398 6.77593 6.42304 6.59216 6.23122L6.02823 5.64268L6.59216 5.05413C6.77598 4.86236 6.77593 4.55142 6.59216 4.35965Z" fill="current" stroke="current" stroke-width="0.3"/>
<path d="M12.4116 9.85718H23.5835C23.6945 9.85718 23.801 9.80011 23.8792 9.69857C23.9574 9.59703 24.0009 9.45955 24 9.31655L23.9573 2.38933C23.9555 2.09474 23.7696 1.85718 23.5408 1.85718H12.3689C12.2579 1.85718 12.1514 1.9143 12.0732 2.01579C11.995 2.11733 11.9515 2.2548 11.9524 2.3978L11.9951 9.32503C11.9969 9.61961 12.1828 9.85718 12.4116 9.85718ZM23.1276 2.9299L23.1636 8.78435H12.8248L12.7888 2.9299H23.1276Z" fill="current" stroke="current" stroke-width="0.7"/>
<path d="M15.6787 5.28564H20.2735C20.5169 5.28564 20.7142 5.28564 20.7142 5.28564C20.7142 5.28564 20.5169 5.28564 20.2735 5.28564H15.6787C15.4354 5.28564 15.238 5.28564 15.238 5.28564C15.238 5.28564 15.4354 5.28564 15.6787 5.28564Z" fill="current"/>
<path d="M15.6787 5.28564H20.2735C20.5169 5.28564 20.7142 5.28564 20.7142 5.28564C20.7142 5.28564 20.5169 5.28564 20.2735 5.28564H15.6787C15.4354 5.28564 15.238 5.28564 15.238 5.28564C15.238 5.28564 15.4354 5.28564 15.6787 5.28564Z" stroke="current" stroke-width="0.8"/>
<path d="M6.55293 15.1918C6.34247 15.0329 6.0482 15.0821 5.89577 15.3018L5.14736 16.381L4.77313 16.0082C4.58522 15.8209 4.28727 15.828 4.10778 16.0243C3.92829 16.2204 3.93516 16.5312 4.12317 16.7185L4.88744 17.48C4.97535 17.5676 5.09192 17.6159 5.21235 17.6159C5.22661 17.6159 5.24092 17.6152 5.25518 17.6139C5.39052 17.601 5.51396 17.5276 5.59364 17.4127L6.65825 15.8776C6.81068 15.6579 6.76353 15.3509 6.55293 15.1918Z" fill="current" stroke="current" stroke-width="0.5"/>
</svg>
