<svg width="20" height="20" viewBox="0 0 20 20" fill="current" xmlns="http://www.w3.org/2000/svg">
<path d="M16.1771 19.2344H3.82279C3.32455 19.2467 2.8417 19.0612 2.47978 18.7186C2.11786 18.3759 1.90631 17.904 1.89136 17.4058V10.1887C1.89136 9.99921 1.96661 9.81753 2.10057 9.68358C2.23452 9.54962 2.4162 9.47437 2.60564 9.47437C2.79508 9.47437 2.97676 9.54962 3.11072 9.68358C3.24467 9.81753 3.31993 9.99921 3.31993 10.1887V17.4058C3.33566 17.5246 3.39686 17.6327 3.49064 17.7073C3.58443 17.7819 3.70349 17.8172 3.82279 17.8058H16.1771C16.2964 17.8172 16.4154 17.7819 16.5092 17.7073C16.603 17.6327 16.6642 17.5246 16.6799 17.4058V10.1887C16.6799 9.99921 16.7552 9.81753 16.8891 9.68358C17.0231 9.54962 17.2048 9.47437 17.3942 9.47437C17.5837 9.47437 17.7653 9.54962 17.8993 9.68358C18.0332 9.81753 18.1085 9.99921 18.1085 10.1887V17.4058C18.0935 17.904 17.882 18.3759 17.5201 18.7186C17.1582 19.0612 16.6753 19.2467 16.1771 19.2344Z" fill="current"/>
<path d="M11.88 11.0286C11.4163 11.0279 10.9624 10.8951 10.5714 10.6457L10 10.2629C9.84486 10.1661 9.66569 10.1148 9.48285 10.1148C9.30001 10.1148 9.12084 10.1661 8.96571 10.2629L8.33714 10.64C7.91787 10.8909 7.43243 11.0087 6.94482 10.9781C6.45722 10.9475 5.99033 10.7699 5.60571 10.4686C5.44564 10.3401 5.24934 10.2649 5.04437 10.2537C4.83941 10.2424 4.63605 10.2956 4.46285 10.4057L4.22285 10.5543C3.77805 10.8325 3.25417 10.9569 2.73178 10.9084C2.20938 10.8599 1.71738 10.6411 1.33142 10.2857L0.908567 9.89718C0.665407 9.66967 0.471875 9.39439 0.34011 9.08857C0.208345 8.78276 0.141189 8.45302 0.142852 8.12003V6.69146C0.146718 6.10854 0.293898 5.53552 0.571424 5.02289L1.93142 2.44575C2.18923 1.94732 2.57714 1.52797 3.05401 1.23219C3.53088 0.936411 4.07892 0.775229 4.64 0.765747H15.36C15.9211 0.775229 16.4691 0.936411 16.946 1.23219C17.4228 1.52797 17.8108 1.94732 18.0686 2.44575L19.4286 5.02289C19.7001 5.53705 19.8414 6.10999 19.84 6.69146V8.00003C19.8391 8.37247 19.752 8.73963 19.5854 9.07275C19.4189 9.40586 19.1774 9.69587 18.88 9.92003L18.16 10.4572C17.7305 10.7815 17.2043 10.9518 16.6662 10.9404C16.1282 10.929 15.6096 10.7366 15.1943 10.3943L15.0514 10.2857C14.8932 10.1546 14.6979 10.0764 14.4929 10.062C14.2879 10.0477 14.0835 10.0979 13.9086 10.2057L13.1086 10.6915C12.7375 10.9138 12.3126 11.0304 11.88 11.0286ZM9.45714 8.68003C9.92174 8.68017 10.3763 8.81515 10.7657 9.0686L11.3371 9.44575C11.4923 9.54251 11.6714 9.59381 11.8543 9.59381C12.0371 9.59381 12.2163 9.54251 12.3714 9.44575L13.1771 8.95432C13.6033 8.69773 14.0984 8.57921 14.5946 8.61502C15.0907 8.65082 15.5637 8.8392 15.9486 9.15432L16.1086 9.28575C16.2788 9.42207 16.4904 9.49635 16.7086 9.49635C16.9267 9.49635 17.1383 9.42207 17.3086 9.28575L18.0286 8.7486C18.1475 8.66223 18.2454 8.54998 18.3146 8.42031C18.3839 8.29065 18.4229 8.14694 18.4286 8.00003V6.69146C18.4273 6.35062 18.3429 6.01523 18.1829 5.71432L16.8057 3.12003C16.6717 2.84883 16.4663 2.61931 16.2115 2.45619C15.9568 2.29307 15.6624 2.20253 15.36 2.19432H4.64C4.33761 2.20253 4.04319 2.29307 3.78844 2.45619C3.53369 2.61931 3.32827 2.84883 3.19428 3.12003L1.81714 5.71432C1.65432 6.02035 1.56989 6.36196 1.57142 6.7086V8.13718C1.57252 8.27081 1.60039 8.40288 1.65339 8.52556C1.70639 8.64825 1.78344 8.75906 1.88 8.85146L2.30285 9.24003C2.45979 9.3851 2.6602 9.47436 2.87301 9.49399C3.08582 9.51361 3.29917 9.46251 3.48 9.34861L3.72 9.20003C4.13982 8.93807 4.63036 8.81229 5.12444 8.83991C5.61852 8.86753 6.09198 9.0472 6.47999 9.35432C6.63631 9.4762 6.82583 9.54797 7.02367 9.56021C7.2215 9.57245 7.41842 9.52458 7.58857 9.42289L8.21142 9.04575C8.58456 8.81034 9.01596 8.68369 9.45714 8.68003Z" fill="current"/>
<path d="M18.7828 6.92576H1.21709C1.02765 6.92576 0.845972 6.85051 0.712017 6.71655C0.578062 6.5826 0.502808 6.40092 0.502808 6.21148C0.502808 6.02204 0.578062 5.84036 0.712017 5.7064C0.845972 5.57245 1.02765 5.49719 1.21709 5.49719H18.7828C18.9722 5.49719 19.1539 5.57245 19.2879 5.7064C19.4218 5.84036 19.4971 6.02204 19.4971 6.21148C19.4971 6.40092 19.4218 6.5826 19.2879 6.71655C19.1539 6.85051 18.9722 6.92576 18.7828 6.92576ZM12.2857 18.9029C12.0962 18.9029 11.9145 18.8277 11.7806 18.6937C11.6466 18.5597 11.5714 18.3781 11.5714 18.1886V14.7143C11.5714 14.6318 11.5551 14.5501 11.5235 14.4738C11.4919 14.3975 11.4456 14.3282 11.3873 14.2699C11.3289 14.2115 11.2596 14.1652 11.1834 14.1336C11.1071 14.102 11.0254 14.0858 10.9428 14.0858H9.05709C8.97455 14.0858 8.89281 14.102 8.81655 14.1336C8.74029 14.1652 8.67099 14.2115 8.61263 14.2699C8.55426 14.3282 8.50796 14.3975 8.47637 14.4738C8.44478 14.5501 8.42852 14.6318 8.42852 14.7143V18.1886C8.42852 18.3781 8.35327 18.5597 8.21931 18.6937C8.08536 18.8277 7.90368 18.9029 7.71424 18.9029C7.5248 18.9029 7.34311 18.8277 7.20916 18.6937C7.0752 18.5597 6.99995 18.3781 6.99995 18.1886V14.7143C7.00146 14.1692 7.21868 13.6468 7.60414 13.2614C7.9896 12.8759 8.51197 12.6587 9.05709 12.6572H10.9428C11.4879 12.6587 12.0103 12.8759 12.3958 13.2614C12.7812 13.6468 12.9984 14.1692 13 14.7143V18.1886C13 18.3781 12.9247 18.5597 12.7907 18.6937C12.6568 18.8277 12.4751 18.9029 12.2857 18.9029Z" fill="current"/>
</svg>
