<svg width="19" height="19" viewBox="0 0 19 19" fill="current" xmlns="http://www.w3.org/2000/svg">
<path d="M15.2478 18.8394H15.2471C11.4076 18.8394 7.56728 18.8516 3.727 18.8394C1.86975 18.8222 0.162 17.21 0.15625 15.2471V3.74855C0.182844 3.19583 0.905906 2.82424 1.34578 3.20517C1.46653 3.31011 1.54991 3.4553 1.58081 3.6127C1.59231 3.67236 1.59088 3.68746 1.59375 3.74855C1.59375 7.59027 1.55781 11.432 1.59375 15.273C1.611 16.3849 2.57341 17.3911 3.73563 17.4019C6.61494 17.4113 9.49353 17.4019 12.3728 17.4019C12.3592 17.3847 12.3462 17.3667 12.3333 17.348C11.8927 16.7335 11.6562 15.9932 11.6541 15.2471V1.5923H0.875C0.875 1.5923 0.182125 1.43417 0.156969 0.908049C0.139 0.522799 0.475375 0.174205 0.875 0.155518H12.3728C12.7588 0.172768 13.0729 0.478955 13.0916 0.873549C13.0916 5.67336 13.047 10.4739 13.0916 15.273C13.1088 16.3727 14.0554 17.3732 15.204 17.4019C15.2608 17.3955 15.2435 17.4055 15.3729 17.3983C16.4525 17.3336 17.3998 16.372 17.4034 15.245V8.77908H15.2471C15.2471 8.77908 14.8993 8.74099 14.7203 8.54908C14.3774 8.17892 14.578 7.4343 15.14 7.34949C15.1875 7.3423 15.1997 7.34302 15.2471 7.34158H18.1221C18.1394 7.3423 18.1573 7.34302 18.1753 7.34374C18.3399 7.3617 18.3658 7.37967 18.4333 7.41274C18.6756 7.52917 18.8301 7.78864 18.8402 8.06033C18.8402 10.4631 18.8481 12.8666 18.8402 15.2694C18.8229 17.141 17.1834 18.833 15.2486 18.8394H15.2478ZM8.06106 14.5276H5.18678C4.62759 14.5169 4.25169 13.7715 4.65419 13.3266C4.78788 13.1785 4.98337 13.0945 5.18678 13.0901H8.06106C8.07041 13.0909 8.08047 13.0909 8.08981 13.0909C8.71728 13.1282 9.03569 14.1136 8.39097 14.4471C8.28963 14.4996 8.1775 14.5255 8.06106 14.5276ZM9.49856 11.6534H3.74928C3.58469 11.6483 3.53006 11.6268 3.43734 11.5822C2.99675 11.3695 2.90331 10.6536 3.33384 10.3488C3.42153 10.2863 3.52287 10.2439 3.62925 10.2259C3.66878 10.2195 3.70903 10.2173 3.74928 10.2159H9.49856C9.5115 10.2166 9.52516 10.2166 9.53881 10.2173C10.0678 10.2619 10.4322 10.9677 10.034 11.4133C9.89891 11.5642 9.76163 11.6462 9.49856 11.6534ZM9.49856 8.77908H3.74928C3.19944 8.76327 2.80628 8.03661 3.21381 7.58092C3.34822 7.42999 3.48622 7.34877 3.74928 7.34158H9.49856C9.5115 7.34158 9.52516 7.3423 9.53881 7.3423C10.07 7.38758 10.4207 8.10633 10.034 8.53902C9.89891 8.68995 9.76163 8.77117 9.49856 8.77908ZM9.49856 5.90408H3.74928C3.20088 5.88899 2.80916 5.15874 3.21381 4.70664C3.34822 4.55571 3.48622 4.47449 3.74928 4.4673H9.49856C9.5115 4.4673 9.52516 4.46802 9.53881 4.46802C9.70341 4.48167 9.75588 4.50683 9.84572 4.55642C10.2597 4.7857 10.3359 5.47283 9.914 5.77183C9.82631 5.83364 9.72497 5.87605 9.61859 5.89402C9.57906 5.90049 9.53881 5.90336 9.49856 5.90408Z" fill="current"/>
</svg>
