<svg width="48" height="48" viewBox="0 0 48 48" fill="none" xmlns="http://www.w3.org/2000/svg">
<rect width="48" height="48" rx="22" fill="#FF6746"/>
<path d="M28.26 21.1602L25.41 24.0002L28.26 26.8402C28.3538 26.9331 28.4282 27.0437 28.4789 27.1656C28.5297 27.2874 28.5558 27.4182 28.5558 27.5502C28.5558 27.6822 28.5297 27.8129 28.4789 27.9347C28.4282 28.0566 28.3538 28.1672 28.26 28.2602C28.1666 28.3528 28.0558 28.4262 27.9339 28.4759C27.8121 28.5257 27.6817 28.5509 27.55 28.5502C27.4184 28.5509 27.288 28.5257 27.1661 28.4759C27.0443 28.4262 26.9335 28.3528 26.84 28.2602L24 25.4102L21.16 28.2602C21.0666 28.3528 20.9558 28.4262 20.8339 28.4759C20.7121 28.5257 20.5816 28.5509 20.45 28.5502C20.3184 28.5509 20.188 28.5257 20.0661 28.4759C19.9443 28.4262 19.8335 28.3528 19.74 28.2602C19.6463 28.1672 19.5719 28.0566 19.5212 27.9347C19.4704 27.8129 19.4442 27.6822 19.4442 27.5502C19.4442 27.4182 19.4704 27.2874 19.5212 27.1656C19.5719 27.0437 19.6463 26.9331 19.74 26.8402L22.59 24.0002L19.74 21.1602C19.6468 21.0669 19.5728 20.9562 19.5224 20.8344C19.4719 20.7126 19.446 20.582 19.446 20.4502C19.446 20.3183 19.4719 20.1877 19.5224 20.0659C19.5728 19.9441 19.6468 19.8334 19.74 19.7402C19.8333 19.6469 19.944 19.573 20.0658 19.5225C20.1876 19.472 20.3182 19.4461 20.45 19.4461C20.5819 19.4461 20.7125 19.472 20.8343 19.5225C20.9561 19.573 21.0668 19.6469 21.16 19.7402L24 22.5902L26.84 19.7402C26.9333 19.6469 27.044 19.573 27.1658 19.5225C27.2876 19.472 27.4182 19.4461 27.55 19.4461C27.6819 19.4461 27.8125 19.472 27.9343 19.5225C28.0561 19.573 28.1668 19.6469 28.26 19.7402C28.3533 19.8334 28.4272 19.9441 28.4777 20.0659C28.5282 20.1877 28.5541 20.3183 28.5541 20.4502C28.5541 20.582 28.5282 20.7126 28.4777 20.8344C28.4272 20.9562 28.3533 21.0669 28.26 21.1602ZM31.07 31.0702C29.184 32.8917 26.658 33.8997 24.036 33.8769C21.4141 33.8541 18.9059 32.8024 17.0519 30.9483C15.1978 29.0943 14.1461 26.5861 14.1233 23.9642C14.1005 21.3422 15.1085 18.8162 16.93 16.9302C18.8161 15.1086 21.3421 14.1006 23.9641 14.1234C26.586 14.1462 29.0941 15.1979 30.9482 17.052C32.8023 18.9061 33.854 21.4142 33.8768 24.0362C33.8996 26.6581 32.8916 29.1841 31.07 31.0702ZM29.66 18.3402C28.5409 17.2222 27.1154 16.4612 25.5638 16.1532C24.0122 15.8453 22.4041 16.0042 20.9428 16.61C19.4815 17.2157 18.2326 18.2411 17.354 19.5565C16.4753 20.8719 16.0063 22.4183 16.0063 24.0002C16.0063 25.582 16.4753 27.1284 17.354 28.4438C18.2326 29.7592 19.4815 30.7846 20.9428 31.3903C22.4041 31.9961 24.0122 32.1551 25.5638 31.8471C27.1154 31.5391 28.5409 30.7781 29.66 29.6602C30.4099 28.9206 31.0053 28.0394 31.4117 27.0677C31.818 26.0961 32.0273 25.0534 32.0273 24.0002C32.0273 22.947 31.818 21.9043 31.4117 20.9326C31.0053 19.961 30.4099 19.0798 29.66 18.3402Z" fill="white"/>
</svg>
